<svg width="132.000000" height="132.000000" viewBox="0 0 132 132" fill="none" xmlns="http://www.w3.org/2000/svg" xmlns:xlink="http://www.w3.org/1999/xlink">
	<desc>
			Created with Pixso.
	</desc>
	<defs/>
	<rect id="фрейм 9" width="132.000000" height="132.000000" fill="#FFFFFF" fill-opacity="0"/>
	<path id="Vector - 0" d="M119.06 109.31C111.21 95.73 99.11 86 84.99 81.38C99.34 72.83 106.22 55.75 101.79 39.63C97.36 23.52 82.71 12.36 66 12.36C49.28 12.36 34.63 23.52 30.2 39.63C25.77 55.75 32.65 72.83 47 81.38C32.88 85.99 20.78 95.73 12.93 109.31C12.14 110.59 12.11 112.19 12.85 113.49C13.59 114.8 14.98 115.6 16.48 115.59C17.98 115.58 19.35 114.75 20.07 113.43C29.78 96.64 46.95 86.62 66 86.62C85.04 86.62 102.21 96.64 111.92 113.43C112.64 114.75 114.01 115.58 115.51 115.59C117.01 115.6 118.4 114.8 119.14 113.49C119.88 112.19 119.85 110.59 119.06 109.31ZM37.12 49.5C37.12 33.55 50.05 20.62 66 20.62C81.94 20.62 94.87 33.55 94.87 49.5C94.87 65.44 81.94 78.37 66 78.37C50.05 78.35 37.14 65.44 37.12 49.5Z" fill="#0080FF" fill-opacity="1.000000" fill-rule="evenodd"/>
</svg>
